Coordinates
version=1
nRows=19
nColumns=63
inDegrees=yes

Units are S.I. units (second, meters, Newtons, ...)
If the header above contains a line with 'inDegrees', this indicates whether rotational values are in degrees (yes) or radians (no).

endheader
time	pelvis_tilt	pelvis_list	pelvis_rotation	pelvis_tx	pelvis_ty	pelvis_tz	hip_flexion_r	hip_adduction_r	hip_rotation_r	knee_angle_r	knee_angle_r_beta	ankle_angle_r	subtalar_angle_r	mtp_angle_r	hip_flexion_l	hip_adduction_l	hip_rotation_l	knee_angle_l	knee_angle_l_beta	ankle_angle_l	subtalar_angle_l	mtp_angle_l	L5_S1_Flex_Ext	L5_S1_Lat_Bending	L5_S1_axial_rotation	L4_L5_Flex_Ext	L4_L5_Lat_Bending	L4_L5_axial_rotation	L3_L4_Flex_Ext	L3_L4_Lat_Bending	L3_L4_axial_rotation	L2_L3_Flex_Ext	L2_L3_Lat_Bending	L2_L3_axial_rotation	L1_L2_Flex_Ext	L1_L2_Lat_Bending	L1_L2_axial_rotation	L1_T12_Flex_Ext	L1_T12_Lat_Bending	L1_T12_axial_rotation	Abs_r3	Abs_r2	Abs_r1	Abs_t1	Abs_t2	neck_flexion	neck_bending	neck_rotation	arm_flex_r	arm_add_r	arm_rot_r	elbow_flex_r	pro_sup_r	wrist_flex_r	wrist_dev_r	arm_flex_l	arm_add_l	arm_rot_l	elbow_flex_l	pro_sup_l	wrist_flex_l	wrist_dev_l
1.433333	0.817429	-4.770868	88.555267	0.204072	0.982231	0.562885	5.154228	-3.324279	-10.191950	10.582185	0.184694	31.243472	9.435689	0.000000	3.770924	-0.399253	5.251081	12.757398	0.222659	30.813584	-1.447109	0.000000	0.301923	-0.274095	0.086164	0.560701	-0.364546	0.091550	0.496029	-0.666435	0.091550	0.345067	-0.666435	0.075394	0.280365	-0.558935	0.070009	0.172519	-0.424573	0.064623	2.156603	-3.100618	0.479220	0.000000	0.000000	25.350584	4.024693	-1.542459	14.112738	-11.251007	56.451841	42.868594	27.323812	5.290681	10.719264	11.405068	-10.824623	47.922533	46.941701	58.181753	11.390752	1.363396
1.450000	0.999818	-4.824862	88.780073	0.204063	0.982064	0.562488	5.149639	-3.105469	-10.269951	10.518660	0.183585	31.391258	9.488245	0.000000	3.773881	-0.611186	5.422811	12.734312	0.222256	30.959627	-1.335467	0.000000	0.310234	-0.265439	0.003033	0.576135	-0.353034	0.003222	0.509683	-0.645388	0.003222	0.354566	-0.645388	0.002654	0.288083	-0.541283	0.002464	0.177267	-0.411165	0.002275	2.215968	-3.002696	0.016867	0.000000	0.000000	25.579679	3.547860	-1.134369	14.146907	-11.291537	56.545161	43.154385	27.502432	4.934203	10.176754	10.874372	-10.902143	46.527916	47.510880	59.037704	11.291761	2.094831
1.466667	1.215277	-4.872568	89.128497	0.203850	0.981881	0.562085	5.121536	-2.889973	-10.684811	10.478146	0.182878	31.573070	9.788546	0.000000	3.779718	-0.850411	5.666403	12.715517	0.221928	31.088597	-1.169266	0.000000	0.318933	-0.252769	-0.080838	0.592290	-0.336183	-0.085890	0.523975	-0.614583	-0.085890	0.364509	-0.614583	-0.070733	0.296161	-0.515447	-0.065681	0.182238	-0.391539	-0.060628	2.278107	-2.859375	-0.449594	0.000000	0.000000	25.818268	2.960222	-0.815491	14.114214	-11.341305	56.516434	43.414815	27.601414	4.647083	9.865327	10.490293	-10.912933	45.442987	47.941409	60.007271	11.274925	2.708319
1.483333	1.453114	-4.893804	89.506558	0.203581	0.981721	0.561735	5.075816	-2.646405	-10.988179	10.468851	0.182716	31.734261	9.874619	0.000000	3.755490	-1.114214	5.875602	12.687281	0.221435	31.184050	-0.959783	0.000000	0.324245	-0.236931	-0.156667	0.602155	-0.315119	-0.166459	0.532701	-0.576075	-0.166459	0.370579	-0.576075	-0.137084	0.301093	-0.483150	-0.127292	0.185273	-0.367006	-0.117500	2.316046	-2.680213	-0.871335	0.000000	0.000000	26.052930	2.296010	-0.527827	14.127281	-11.403734	56.664264	43.580977	27.542056	4.514989	9.600995	10.243227	-10.903453	44.703559	48.273970	60.750297	11.198009	3.211367
1.500000	1.710067	-4.891005	89.950659	0.203209	0.981585	0.561462	5.007233	-2.404208	-11.434916	10.494466	0.183163	31.895806	10.024874	0.000000	3.712813	-1.397143	6.105448	12.653552	0.220846	31.229121	-0.702196	0.000000	0.326322	-0.219264	-0.218184	0.606012	-0.291621	-0.231821	0.536114	-0.533118	-0.231821	0.372953	-0.533118	-0.190911	0.303022	-0.447123	-0.177275	0.186460	-0.339640	-0.163638	2.330883	-2.480358	-1.213475	0.000000	0.000000	26.258091	1.533796	-0.377482	14.086236	-11.480625	56.681643	43.730286	27.427739	4.412123	9.489741	10.185722	-10.846072	44.409936	48.447084	61.330893	11.124603	3.528395
1.516667	1.985733	-4.866149	90.412138	0.202795	0.981474	0.561274	4.934720	-2.153130	-11.888388	10.568594	0.184457	32.073691	10.137545	0.000000	3.646568	-1.699760	6.308734	12.605018	0.219999	31.231244	-0.425896	0.000000	0.325378	-0.199781	-0.259082	0.604259	-0.265709	-0.275275	0.534563	-0.485747	-0.275275	0.371874	-0.485747	-0.226697	0.302146	-0.407393	-0.210504	0.185921	-0.309461	-0.194311	2.324142	-2.259961	-1.440936	0.000000	0.000000	26.417894	0.672347	-0.379738	13.995225	-11.581046	56.556366	43.874546	27.183278	4.387782	9.496566	10.302780	-10.740440	44.555822	48.437111	61.682010	11.057225	3.528680
1.533333	2.275750	-4.835166	90.915504	0.202315	0.981364	0.561177	4.869537	-1.903914	-12.410258	10.680804	0.186415	32.277324	10.274110	0.000000	3.580079	-2.009189	6.584694	12.540274	0.218869	31.179602	-0.210289	0.000000	0.323061	-0.178805	-0.296862	0.599956	-0.237810	-0.315416	0.530757	-0.434746	-0.315416	0.369226	-0.434746	-0.259755	0.299994	-0.364618	-0.241201	0.184597	-0.276968	-0.222647	2.307591	-2.022674	-1.651059	0.000000	0.000000	26.523154	-0.237714	-0.455247	13.857722	-11.681794	56.234389	44.056722	27.041402	4.313504	9.636934	10.428760	-10.607465	44.692174	48.386518	62.201852	10.850838	3.417743
1.550000	2.570966	-4.790586	91.433484	0.201828	0.981263	0.561191	4.811037	-1.663259	-12.968010	10.831495	0.189045	32.511429	10.447711	0.000000	3.504449	-2.322794	6.871474	12.456947	0.217415	31.115583	0.013990	0.000000	0.317477	-0.158524	-0.320082	0.589586	-0.210837	-0.340087	0.521582	-0.385436	-0.340087	0.362844	-0.385436	-0.280072	0.294809	-0.323263	-0.260067	0.181406	-0.245554	-0.240062	2.267703	-1.793260	-1.780201	0.000000	0.000000	26.558183	-1.195082	-0.708573	13.660903	-11.802984	55.681757	44.294716	26.893774	4.286474	9.858543	10.685278	-10.475010	45.149689	48.261394	62.540307	10.640036	3.092945
1.566667	2.867767	-4.758145	91.951928	0.201331	0.981136	0.561311	4.787711	-1.438136	-13.582238	11.014644	0.192242	32.785699	10.705527	0.000000	3.448684	-2.631994	7.197348	12.357653	0.215682	31.062756	0.213133	0.000000	0.311906	-0.137967	-0.345824	0.579241	-0.183496	-0.367438	0.512431	-0.335453	-0.367438	0.356478	-0.335453	-0.302596	0.289636	-0.281342	-0.280982	0.178223	-0.213711	-0.259368	2.227915	-1.560711	-1.923371	0.000000	0.000000	26.543994	-2.106229	-0.940263	13.442074	-11.928566	54.963311	44.611710	26.929910	4.149944	10.138275	10.878152	-10.326820	45.436181	48.181678	63.038806	10.290221	2.706142
1.583333	3.160126	-4.733803	92.473569	0.200804	0.980984	0.561546	4.791436	-1.229186	-14.218982	11.215209	0.195742	33.075023	10.996063	0.000000	3.406991	-2.927600	7.562506	12.235793	0.213555	31.041746	0.385851	0.000000	0.305099	-0.118166	-0.372002	0.566599	-0.157161	-0.395253	0.501247	-0.287308	-0.395253	0.348698	-0.287308	-0.325502	0.283315	-0.240964	-0.302252	0.174334	-0.183039	-0.279002	2.179291	-1.336715	-2.068966	0.000000	0.000000	26.470671	-2.950450	-1.201705	13.188029	-12.070022	54.072199	45.015533	27.141947	3.950169	10.438888	11.057904	-10.153301	45.614577	48.101685	63.626819	10.008890	2.265856
1.600000	3.433000	-4.719994	92.948087	0.200321	0.980805	0.561901	4.832499	-1.049957	-14.845591	11.439181	0.199651	33.369739	11.352384	0.000000	3.376541	-3.191754	7.977950	12.095422	0.211105	31.056498	0.465081	0.000000	0.297792	-0.100622	-0.390482	0.553029	-0.133827	-0.414887	0.489242	-0.244652	-0.414887	0.340346	-0.244652	-0.341672	0.276530	-0.205188	-0.317266	0.170158	-0.155863	-0.292861	2.127098	-1.138253	-2.171743	0.000000	0.000000	26.333498	-3.686430	-1.441118	12.902357	-12.212068	52.977853	45.462173	27.588446	3.767999	10.869128	11.268131	-9.993733	45.872655	48.039101	64.144846	9.585688	1.665089
1.616667	3.686099	-4.716919	93.391958	0.199889	0.980596	0.562394	4.903113	-0.888235	-15.379790	11.669367	0.203669	33.635563	11.630673	0.000000	3.372531	-3.442006	8.285374	11.960273	0.208746	31.146765	0.686018	0.000000	0.289890	-0.085096	-0.409066	0.538355	-0.113178	-0.434633	0.476260	-0.206903	-0.434633	0.331315	-0.206903	-0.357933	0.269192	-0.173528	-0.332366	0.165643	-0.131814	-0.306800	2.070655	-0.962625	-2.275104	0.000000	0.000000	26.137320	-4.270858	-1.551845	12.642899	-12.370608	51.866492	45.944126	28.153930	3.538191	11.335441	11.506369	-9.857247	46.184367	48.001356	64.498978	9.081348	1.024544
1.633333	3.891824	-4.723263	93.749595	0.199571	0.980366	0.563045	5.008864	-0.772204	-15.845602	11.909099	0.207853	33.862134	11.908735	0.000000	3.381969	-3.641321	8.550122	11.823958	0.206367	31.264300	0.880101	0.000000	0.281112	-0.074539	-0.422889	0.522052	-0.099136	-0.449320	0.461838	-0.181233	-0.449320	0.321282	-0.181233	-0.370028	0.261040	-0.151999	-0.343598	0.160627	-0.115460	-0.317167	2.007952	-0.843195	-2.351983	0.000000	0.000000	25.899625	-4.684788	-1.492938	12.499408	-12.546523	50.980438	46.408008	28.645889	3.298842	11.750671	11.765663	-9.762673	46.543527	47.993519	64.702294	8.462079	0.313831
1.650000	4.069312	-4.738062	94.055665	0.199299	0.980102	0.563800	5.141749	-0.690385	-16.287757	12.161281	0.212254	34.079413	12.258869	0.000000	3.406306	-3.800937	8.837444	11.690934	0.204045	31.389409	0.964851	0.000000	0.273219	-0.066999	-0.436127	0.507395	-0.089109	-0.463385	0.448872	-0.162902	-0.463385	0.312262	-0.162902	-0.381612	0.253711	-0.136625	-0.354354	0.156117	-0.103782	-0.327096	1.951577	-0.757910	-2.425610	0.000000	0.000000	25.603513	-4.951001	-1.305545	12.466556	-12.758514	50.371349	46.857764	28.976448	3.019157	12.094256	12.042684	-9.684405	46.952367	47.971780	64.746397	7.802986	-0.466350
1.666667	4.198367	-4.760765	94.280423	0.199137	0.979821	0.564632	5.289689	-0.649816	-16.658068	12.401280	0.216443	34.234780	12.586650	0.000000	3.441668	-3.910485	9.081525	11.570330	0.201940	31.510792	0.992691	0.000000	0.265414	-0.064718	-0.442224	0.492900	-0.086075	-0.469863	0.436048	-0.157355	-0.469863	0.303341	-0.157355	-0.386946	0.246463	-0.131973	-0.359307	0.151657	-0.100248	-0.331668	1.895824	-0.732102	-2.459516	0.000000	0.000000	25.304526	-5.120481	-1.004608	12.538851	-12.986024	50.014332	47.267510	29.219132	2.725600	12.372816	12.322042	-9.641484	47.394380	47.975622	64.631315	7.079380	-1.287009
1.683333	4.286973	-4.814556	94.437166	0.199052	0.979488	0.565513	5.474344	-0.648381	-16.971409	12.633323	0.220493	34.343348	12.910598	0.000000	3.518785	-3.982581	9.220416	11.474585	0.200269	31.649302	1.063423	0.000000	0.261749	-0.067365	-0.437177	0.486094	-0.089595	-0.464500	0.430027	-0.163790	-0.464500	0.299153	-0.163790	-0.382529	0.243060	-0.137370	-0.355206	0.149563	-0.104348	-0.327882	1.869646	-0.762043	-2.431445	0.000000	0.000000	25.011338	-5.219135	-0.686260	12.601383	-13.213438	49.596653	47.649717	29.578131	2.475506	12.806945	12.609023	-9.603517	47.859262	47.974758	64.386600	6.367845	-2.072831
1.700000	4.313478	-4.889883	94.500583	0.199111	0.979120	0.566417	5.685686	-0.690633	-17.107316	12.853206	0.224331	34.387152	13.085583	0.000000	3.617227	-3.993575	9.324144	11.398170	0.198936	31.774095	1.054425	0.000000	0.260824	-0.076750	-0.430418	0.484376	-0.102078	-0.457319	0.428508	-0.186610	-0.457319	0.298096	-0.186610	-0.376616	0.242201	-0.156509	-0.349715	0.149035	-0.118886	-0.322814	1.863039	-0.868212	-2.393858	0.000000	0.000000	24.756125	-5.228363	-0.243162	12.814819	-13.427347	49.600478	47.951974	29.803607	2.174168	13.000574	12.866233	-9.637259	48.321612	48.044942	63.947326	5.584440	-2.849936
1.716667	4.288230	-4.973946	94.468973	0.199286	0.978737	0.567275	5.899783	-0.766722	-17.050390	13.050139	0.227768	34.354168	13.095045	0.000000	3.707551	-3.954585	9.353278	11.320155	0.197574	31.858430	0.980262	0.000000	0.261120	-0.091352	-0.420690	0.484926	-0.121499	-0.446983	0.428994	-0.222114	-0.446983	0.298434	-0.222114	-0.368104	0.242476	-0.186286	-0.341811	0.149204	-0.141505	-0.315518	1.865156	-1.033395	-2.339753	0.000000	0.000000	24.559964	-5.193385	0.253502	13.151886	-13.637174	49.978902	48.192047	29.890841	1.837848	12.973515	13.106744	-9.750684	48.822675	48.205786	63.214090	4.752030	-3.525723
1.733333	4.236201	-5.075409	94.424668	0.199454	0.978322	0.568060	6.104405	-0.868335	-17.050733	13.209401	0.230548	34.274798	13.131476	0.000000	3.818519	-3.884593	9.407559	11.264196	0.196597	31.929969	0.831381	0.000000	0.264117	-0.107972	-0.429074	0.490492	-0.143603	-0.455892	0.433918	-0.262524	-0.455892	0.301860	-0.262524	-0.375440	0.245259	-0.220177	-0.348623	0.150917	-0.167249	-0.321806	1.886564	-1.221406	-2.386383	0.000000	0.000000	24.429302	-5.097344	0.864955	13.627697	-13.831143	50.764686	48.331188	29.801699	1.586915	12.750706	13.195400	-9.874947	49.005214	48.465361	62.804129	3.803761	-4.179259
